# AST/ASF file generated using VICON BodyLanguage
# -----------------------------------------------
:version 1.10
:name VICON
:units
  mass 1.0
  length 0.45
  angle deg
:documentation
   .ast/.asf automatically generated from VICON data using
   VICON BodyBuilder and BodyLanguage model FoxedUp or BRILLIANT.MOD
:root
   order TX TY TZ RX RY RZ
   axis XYZ
   position 0 0 0  
   orientation 0 0 0 
:bonedata
  begin
     id 1 
     name lhipjoint
     direction 0.528046 -0.759594 0.379717 
     length 2.39752 
     axis 0 0 0  XYZ
  end
  begin
     id 2 
     name lfemur
     direction 0.34202 -0.939693 0  
     length 7.31175  
     axis 0 0 20  XYZ
    dof rx ry rz
    limits (-160.0 20.0)
           (-70.0 70.0)
           (-60.0 70.0)
  end
  begin
     id 3 
     name ltibia
     direction 0.34202 -0.939693 0   
     length 7.52482   
     axis 0 0 20   XYZ
    dof rx
    limits (-10.0 170.0)
  end
  begin
     id 4 
     name lfoot
     direction 0.0675379 -0.185559 0.980309   
     length 2.00961   
     axis -90 7.62852e-016 20   XYZ
    dof rx rz
    limits (-45.0 90.0)
           (-70.0 20.0)
  end
  begin
     id 5 
     name ltoes
     direction 1.5352e-011 -4.22286e-011 1   
     length 1.01383   
     axis -90 7.62852e-016 20   XYZ
    dof rx
    limits (-90.0 20.0)
  end
  begin
     id 6 
     name rhipjoint
     direction -0.510274 -0.769251 0.384544   
     length 2.36742  
     axis 0 0 0  XYZ 
  end
  begin
     id 7 
     name rfemur
     direction -0.34202 -0.939693 0   
     length 7.45325   
     axis 0 0 -20   XYZ
    dof rx ry rz
    limits (-160.0 20.0)
           (-70.0 70.0)
           (-70.0 60.0)
  end
  begin
     id 8 
     name rtibia
     direction -0.34202 -0.939693 0   
     length 7.49587   
     axis 0 0 -20   XYZ
    dof rx
    limits (-10.0 170.0)
 end
 begin
     id 9 
     name rfoot
     direction -0.106475 -0.292536 0.950308   
     length 2.20898  
     axis -90 -7.62852e-016 -20   XYZ
    dof rx rz
    limits (-45.0 90.0)
           (-20.0 70.0)
  end
  begin
     id 10 
     name rtoes
     direction -1.53597e-011 -4.22023e-011 1   
     length 1.10065   
     axis -90 -7.62852e-016 -20   XYZ
    dof rx
    limits (-90.0 20.0)
  end
  begin
     id 11 
     name lowerback
     direction 0.0260024 0.998026 -0.0571652   
     length 2.11214   
     axis 0 0 0   XYZ
    dof rx ry rz
    limits (-20.0 45.0)
           (-30.0 30.0)
           (-30.0 30.0)
  end
  begin
     id 12 
     name upperback
     direction 0.0216202 0.999542 -0.0211766   
     length 2.11689   
     axis 0 0 0   XYZ
    dof rx ry rz
    limits (-20.0 45.0)
           (-30.0 30.0)
           (-30.0 30.0)
  end
  begin
     id 13 
     name thorax
     direction 0.00883312 0.999944 0.00589057   
     length 2.11821   
     axis 0 0 0   XYZ
    dof rx ry rz
    limits (-20.0 45.0)
           (-30.0 30.0)
           (-30.0 30.0)
  end
  begin
     id 14 
     name lowerneck
     direction -0.059386 0.994433 0.0870401   
     length 1.81176   
     axis 0 0 0   XYZ
    dof rx ry rz
    limits (-20.0 45.0)
           (-30.0 30.0)
           (-30.0 30.0)
  end
  begin
     id 15 
     name upperneck
     direction 0.0506457 0.97328 -0.223967   
     length 1.82382   
     axis 0 0 0   XYZ
    dof rx ry rz
    limits (-20.0 45.0)
           (-30.0 30.0)
           (-30.0 30.0)
  end
  begin
     id 16
     name head
     direction 0.0205902 0.996147 -0.0852487  
     length 1.84805  
     axis 0 0 0   XYZ
    dof rx ry rz
    limits (-20.0 45.0)
           (-30.0 30.0)
           (-30.0 30.0)
  end
  begin
     id 17 
     name lclavicle
     direction 0.949493 0.303881 -0.0782325  
     length 3.60584  
     axis 0 0 0   XYZ
    dof ry rz
    limits (-20.0 10.0)
           (0.0 20.0)
  end
  begin
     id 18 
     name lhumerus
     direction 1 -4.48965e-011 1.48782e-027   
     length 4.95681   
     axis 180 -30 -90   XYZ
    dof rx ry rz
    limits (-60.0 90.0)
           (-90.0 90.0)
           (-90.0 90.0)
  end
  begin
     id 19
     name lradius
     direction 1 -4.48952e-011 2.06528e-027   
     length 3.40915   
     axis 180 -30 -90   XYZ
    dof rx
    limits (-10.0 170.0)
  end
  begin
     id 20
     name lwrist
     direction 1 -4.48964e-011 1.28021e-027   
     length 1.70457   
     axis -1.61767e-015 90 90   XYZ
    dof ry
    limits (-180.0 0.0)
 end
  begin
     id 21 
     name lhand
     direction 1 -4.49094e-011 2.54887e-027   
     length 0.616403   
     axis -1.63363e-015 90 90   XYZ
    dof rx rz
    limits (-90.0 90.0)
           (-45.0 45.0)
  end
  begin
     id 22 
     name lfingers
     direction 1 -4.49002e-011 5.11407e-027   
     length 0.49696   
     axis -3.26723e-015 90 90   XYZ
    dof rx
    limits (0.0 90.0)
  end
  begin
     id 23
     name lthumb
     direction 0.707107 -6.34998e-011 0.707107   
     length 0.713539   
     axis -90 45 -2.25915e-014   XYZ
    dof rx rz
    limits (-45.0 45.0)
           (-45.0 45.0)
  end
  begin
     id 24 
     name rclavicle
     direction -0.937751 0.334612 -0.0930482   
     length 3.46287  
     axis 0 0 0   XYZ 
    dof ry rz
    limits (-10.0 20.0)
           (-20.0 0.0)
  end
  begin
     id 25 
     name rhumerus
     direction -1 -4.48962e-011 3.59972e-027  
     length 5.352   
     axis 180 30 90   XYZ
    dof rx ry rz
    limits (-90.0 60.0)
           (-90.0 90.0)
           (-90.0 90.0)
  end
  begin
     id 26 
     name rradius
     direction -1 -4.48987e-011 -3.76925e-027   
     length 3.43721   
     axis 180 30 90   XYZ
    dof rx
    limits (-10.0 170.0)
  end
  begin
     id 27 
     name rwrist
     direction -1 -4.48943e-011 1.28112e-027   
     length 1.7186   
     axis -1.61767e-015 -90 -90   XYZ
    dof ry
    limits (-180.0 0.0)
  end
  begin
     id 28
     name rhand
     direction -1 -4.49027e-011 2.55483e-027   
     length 0.72009   
     axis -1.63363e-015 -90 -90   XYZ
    dof rx rz
    limits (-90.0 90.0)
           (-45.0 45.0)
  end
  begin
     id 29
     name rfingers
     direction -1 -4.48827e-011 5.14506e-027   
     length 0.580555   
     axis -3.26723e-015 -90 -90   XYZ
    dof rx
    limits (0.0 90.0)
  end
  begin
     id 30
     name rthumb
     direction -0.707107 -6.34936e-011 0.707107   
     length 0.833564   
     axis -90 -45 2.25915e-014   XYZ
    dof rx rz
    limits (-45.0 45.0)
           (-45.0 45.0)
  end
:hierarchy
  begin
    root lhipjoint rhipjoint lowerback
    lhipjoint lfemur
    lfemur ltibia
    ltibia lfoot
    lfoot ltoes
    rhipjoint rfemur
    rfemur rtibia
    rtibia rfoot
    rfoot rtoes
    lowerback upperback
    upperback thorax
    thorax lowerneck lclavicle rclavicle
    lowerneck upperneck
    upperneck head
    lclavicle lhumerus
    lhumerus lradius
    lradius lwrist
    lwrist lhand lthumb
    lhand lfingers
    rclavicle rhumerus
    rhumerus rradius
    rradius rwrist
    rwrist rhand rthumb
    rhand rfingers
  end

#!OML:ASF H:\Terrain\Patient Classification 1\Terrain2\Thursday\justin.ASF
:FULLY-SPECIFIED
:DEGREES
70
root 9.17335 17.4288 -24.7563 1.33491 -4.33651 1.22422
lowerback 5.31034 -0.94019 -2.58546
upperback 2.24853 -1.36044 1.85511
thorax -0.555778 -0.704248 3.43838
lowerneck -16.0608 0.0879329 -7.3764
upperneck 31.5849 2.05624 1.01605
head 13.2227 0.133428 1.99619
rclavicle 8.84592e-015 1.98785e-015
rhumerus -32.6781 -10.5446 -75.6476
rradius 28.7799
rwrist -8.47117
rhand -20.5148 9.71451
rfingers 7.12502
rthumb 5.84276 -20.1849
lclavicle 8.84592e-015 1.98785e-015
lhumerus -33.3116 6.08291 80.8517
lradius 34.7806
lwrist 1.56332
lhand -14.2815 24.9113
lfingers 7.12502
lthumb 11.8576 54.5556
rfemur -24.6129 -1.7882 18.267
rtibia 68.929
rfoot -9.61149 -4.18903
rtoes 1.08
lfemur -9.29927 3.56765 -24.5065
ltibia 24.4797
lfoot -11.0744 -11.7184
ltoes 16.496
71
root 9.16816 17.4004 -24.6487 1.39576 -4.26635 1.71007
lowerback 5.31243 -0.918535 -2.99713
upperback 2.20261 -1.35397 1.62578
thorax -0.600164 -0.700582 3.43376
lowerneck -16.0117 0.0443523 -7.22346
upperneck 31.4976 1.93958 1.01208
head 13.1813 0.103401 1.94831
rclavicle -8.05078e-015 2.38542e-015
rhumerus -32.7632 -10.8923 -75.788
rradius 28.546
rwrist -8.52329
rhand -20.0682 11.65
rfingers 7.12502
rthumb 6.27401 -18.2371
lclavicle -8.05078e-015 2.38542e-015
lhumerus -33.0064 5.30673 80.7947
lradius 35.6257
lwrist 2.78022
lhand -15.4747 25.3273
lfingers 7.12502
lthumb 10.7069 55.0345
rfemur -25.8643 -1.80085 17.7994
rtibia 68.3505
rfoot -10.6168 -4.11653
rtoes 0.234345
lfemur -9.19168 3.67002 -25.0519
ltibia 24.8352
lfoot -11.5023 -11.8667
ltoes 16.9437
72
root 9.16182 17.3827 -24.541 1.41622 -4.10728 1.82393
lowerback 5.36299 -0.965691 -3.11334
upperback 2.26611 -1.4239 1.58789
thorax -0.555105 -0.737882 3.46418
lowerneck -16.2491 0.0288053 -7.289
upperneck 31.487 1.93399 1.09121
head 13.2261 0.103295 1.99213
rclavicle -1.18277e-014 -8.74653e-015
rhumerus -32.837 -11.0562 -75.8551
rradius 28.7868
rwrist -8.17351
rhand -19.1643 9.77082
rfingers 7.12502
rthumb 7.14655 -20.0885
lclavicle -1.18277e-014 -8.74653e-015
lhumerus -32.4592 4.96285 80.6902
lradius 36.2302
lwrist 3.32626
lhand -15.2225 25.6542
lfingers 7.12502
lthumb 10.9502 55.3486
rfemur -26.8604 -1.91121 17.7961
rtibia 67.5008
rfoot -11.7297 -4.04302
rtoes -1.26988
lfemur -8.96115 3.9006 -25.1571
ltibia 25.1217
lfoot -11.9401 -12.2419
ltoes 17.0199
73
root 9.15565 17.3662 -24.4351 1.41631 -3.95957 1.72303
lowerback 5.44379 -0.939984 -3.00168
upperback 2.40357 -1.38549 1.61586
thorax -0.46387 -0.722038 3.42805
lowerneck -16.6806 -0.0650446 -7.43121
upperneck 31.5104 1.8187 1.29305
head 13.3303 0.0615629 2.08318
rclavicle -1.41137e-014 -7.95139e-015
rhumerus -32.8868 -11.3819 -75.8148
rradius 29.1701
rwrist -7.68987
rhand -18.928 7.47941
rfingers 7.12502
rthumb 7.37463 -22.3721
lclavicle -1.41137e-014 -7.95139e-015
lhumerus -31.8188 4.82556 80.5106
lradius 36.9794
lwrist 2.57627
lhand -13.6086 26.4629
lfingers 7.12502
lthumb 12.5065 56.0686
rfemur -27.6882 -1.84077 18.0356
rtibia 66.4431
rfoot -12.2973 -4.30642
rtoes -1.26812
lfemur -8.68077 4.01688 -25.0208
ltibia 25.3891
lfoot -12.3749 -12.5537
ltoes 17.4735
74
root 9.15067 17.353 -24.3272 1.48265 -3.75037 1.73448
lowerback 5.46383 -1.06393 -3.12487
upperback 2.22374 -1.55654 1.72258
thorax -0.639548 -0.802582 3.62044
lowerneck -16.2003 0.0205582 -7.51219
upperneck 31.4301 1.93607 1.24084
head 13.1874 0.100361 2.08797
rclavicle 3.8763e-014 -1.39149e-014
rhumerus -33.1898 -10.9743 -75.8172
rradius 29.0682
rwrist -7.93767
rhand -19.8864 12.5294
rfingers 7.12502
rthumb 6.44952 -17.3524
lclavicle 3.8763e-014 -1.39149e-014
lhumerus -32.0143 4.69197 80.4763
lradius 37.9995
lwrist 2.91915
lhand -12.8707 26.2429
lfingers 7.12502
lthumb 13.2179 55.8039
rfemur -28.5433 -1.69077 18.1125
rtibia 65.1972
rfoot -12.6721 -4.63152
rtoes 1.12832
lfemur -8.45019 3.94147 -25.0279
ltibia 25.595
lfoot -12.7747 -12.7085
ltoes 17.6323
75
root 9.14513 17.3416 -24.217 1.56487 -3.47409 1.90999
lowerback 5.37309 -1.15636 -3.35089
upperback 2.22003 -1.68834 1.73246
thorax -0.574064 -0.871071 3.76299
lowerneck -16.1597 0.0556029 -7.35986
upperneck 31.3833 2.02421 0.972045
head 13.1614 0.122407 1.96884
rclavicle 2.39536e-014 0
rhumerus -33.0468 -11.0235 -75.8362
rradius 28.6783
rwrist -8.0652
rhand -18.7347 10.1324
rfingers 7.12502
rthumb 7.56124 -19.7125
lclavicle 2.39536e-014 0
lhumerus -31.7113 4.18661 80.6754
lradius 38.8334
lwrist 4.40787
lhand -13.1313 25.1933
lfingers 7.12502
lthumb 12.9666 54.7703
rfemur -29.3647 -1.61692 18.0278
rtibia 63.7769
rfoot -13.29 -4.59566
rtoes 3.08266
lfemur -8.19581 3.76416 -25.2132
ltibia 25.7268
lfoot -13.1706 -12.8019
ltoes 16.7323
76
root 9.13922 17.3282 -24.107 1.62674 -3.21461 2.04116
lowerback 5.3102 -1.20293 -3.50392
upperback 2.341 -1.75538 1.73787
thorax -0.403069 -0.911401 3.85467
lowerneck -16.5164 -0.00132456 -7.30835
upperneck 31.4412 2.01723 0.808993
head 13.2679 0.0998529 1.89979
rclavicle -1.39149e-015 -2.14687e-014
rhumerus -32.8288 -11.2473 -75.8086
rradius 28.5438
rwrist -7.97959
rhand -18.0971 9.33001
rfingers 7.12502
rthumb 8.17665 -20.4918
lclavicle -1.39149e-015 -2.14687e-014
lhumerus -31.1063 3.74221 80.8084
lradius 39.5505
lwrist 5.18959
lhand -13.1772 25.7789
lfingers 7.12502
lthumb 12.9224 55.3588
rfemur -30.0628 -1.64551 18.0177
rtibia 62.1803
rfoot -13.8328 -4.77694
rtoes 2.03034
lfemur -7.8299 3.68296 -25.3381
ltibia 25.6944
lfoot -13.4395 -13.0115
ltoes 16.4268
77
root 9.13066 17.3195 -23.9989 1.71354 -3.00041 2.04594
lowerback 5.29912 -1.19653 -3.40507
upperback 2.35196 -1.74237 1.63875
thorax -0.393366 -0.903927 3.69498
lowerneck -16.6326 -0.0663225 -7.21308
upperneck 31.4951 1.86457 0.932155
head 13.3205 0.0594952 1.91011
rclavicle 1.98785e-014 1.90833e-014
rhumerus -33.061 -11.5439 -75.9662
rradius 28.7983
rwrist -7.97135
rhand -18.4396 9.25603
rfingers 7.12502
rthumb 7.84601 -20.5784
lclavicle 1.98785e-014 1.90833e-014
lhumerus -30.7386 2.93219 80.6684
lradius 40.2663
lwrist 5.49104
lhand -12.9389 26.4231
lfingers 7.12502
lthumb 13.1521 55.9883
rfemur -30.7165 -1.69978 18.1397
rtibia 60.4321
rfoot -14.1426 -5.15215
rtoes 1.07402
lfemur -7.41322 3.74608 -25.3011
ltibia 25.5151
lfoot -13.5533 -13.3916
ltoes 17.1414
78
root 9.12223 17.3175 -23.8869 1.78967 -2.78085 2.24009
lowerback 5.30475 -1.27296 -3.60361
upperback 2.2273 -1.85503 1.58693
thorax -0.509869 -0.956522 3.76134
lowerneck -16.2996 0.00544712 -7.20728
upperneck 31.4148 1.91094 0.998224
head 13.2101 0.0936915 1.93759
rclavicle -9.83984e-015 1.07344e-014
rhumerus -33.438 -11.3723 -76.1071
rradius 29.0349
rwrist -8.08094
rhand -18.8011 9.1437
rfingers 7.12502
rthumb 7.4971 -20.7034
lclavicle -9.83984e-015 1.07344e-014
lhumerus -30.7093 2.66063 80.4996
lradius 40.8763
lwrist 5.63111
lhand -12.7788 24.6899
lfingers 7.12502
lthumb 13.3064 54.2451
rfemur -31.2662 -1.79366 18.0057
rtibia 58.5502
rfoot -14.3563 -5.24527
rtoes 2.69144
lfemur -6.91799 3.86537 -25.4705
ltibia 25.2141
lfoot -13.6998 -13.9071
ltoes 17.3984
79
root 9.119 17.3116 -23.767 1.84166 -2.65061 2.63498
lowerback 5.31208 -1.34635 -4.21293
upperback 2.10438 -1.98304 1.69177
thorax -0.602534 -1.01997 4.22322
lowerneck -16.1492 0.0360628 -7.44477
upperneck 31.4941 2.04606 0.91061
head 13.2069 0.110343 1.96463
rclavicle 4.03533e-014 3.97569e-015
rhumerus -33.6699 -10.9018 -75.9251
rradius 29.0779
rwrist -8.18843
rhand -18.4861 9.23945
rfingers 7.12502
rthumb 7.80116 -20.5966
lclavicle 4.03533e-014 3.97569e-015
lhumerus -30.7302 2.92503 80.5988
lradius 41.475
lwrist 5.58299
lhand -12.8889 24.1213
lfingers 7.12502
lthumb 13.2003 53.6833
rfemur -31.7424 -1.87999 17.6375
rtibia 56.559
rfoot -14.3841 -5.3023
rtoes 2.17798
lfemur -6.30064 3.91341 -25.9001
ltibia 24.7842
lfoot -14.0562 -13.9865
ltoes 16.0687
80
root 9.11375 17.3092 -23.6509 1.90156 -2.62861 2.67305
lowerback 5.07527 -1.36711 -4.1083
upperback 2.21211 -1.99658 1.58407
thorax -0.365976 -1.03362 4.04322
lowerneck -16.1628 -0.00418224 -7.42437
upperneck 31.4105 1.96179 0.964791
head 13.1773 0.0859752 1.96802
rclavicle 3.07122e-014 -2.38542e-015
rhumerus -33.5837 -11.257 -76.0656
rradius 28.9352
rwrist -7.8488
rhand -18.0539 9.95316
rfingers 7.12502
rthumb 8.21829 -19.867
lclavicle 3.07122e-014 -2.38542e-015
lhumerus -30.3388 2.55447 80.4201
lradius 42.0983
lwrist 5.81008
lhand -13.2839 26.0581
lfingers 7.12502
lthumb 12.8195 55.6444
rfemur -32.2015 -1.76446 17.7154
rtibia 54.4603
rfoot -13.9895 -5.53245
rtoes -0.237728
lfemur -5.67419 3.95035 -25.9066
ltibia 24.3087
lfoot -14.3439 -13.6843
ltoes 15.013
81
root 9.10177 17.3213 -23.5424 2.01004 -2.50874 2.39156
lowerback 5.13275 -1.37794 -3.901
upperback 2.17173 -2.00277 1.69086
thorax -0.442758 -1.03335 4.03988
lowerneck -16.13 -0.0249513 -7.45032
upperneck 31.3281 1.92684 0.988376
head 13.1366 0.0740083 1.97461
rclavicle -1.33186e-014 1.59028e-014
rhumerus -33.5904 -11.5062 -76.0605
rradius 28.7517
rwrist -7.47096
rhand -18.1457 9.96146
rfingers 7.12502
rthumb 8.12976 -19.8622
lclavicle -1.33186e-014 1.59028e-014
lhumerus -30.0578 2.21694 80.4193
lradius 42.6413
lwrist 5.92651
lhand -13.5175 27.4042
lfingers 7.12502
lthumb 12.5943 57.0046
rfemur -32.6114 -1.5618 18.1297
rtibia 52.2507
rfoot -13.4589 -5.60249
rtoes 1.62018
lfemur -5.15814 4.0373 -25.4983
ltibia 23.8548
lfoot -14.1259 -13.7718
ltoes 16.1495
82
root 9.09076 17.324 -23.4281 2.16455 -2.35967 2.37054
lowerback 5.04174 -1.38396 -3.92929
upperback 2.16956 -2.00863 1.72026
thorax -0.391521 -1.03779 4.08373
lowerneck -16.2976 -0.0249679 -7.44249
upperneck 31.3744 1.93779 1.0053
head 13.1912 0.0801453 1.98426
rclavicle 4.87022e-015 2.94201e-014
rhumerus -33.5397 -11.5859 -76.1267
rradius 28.6213
rwrist -7.56705
rhand -18.7083 9.86112
rfingers 7.12502
rthumb 7.58667 -19.9828
lclavicle 4.87022e-015 2.94201e-014
lhumerus -29.7122 1.9745 80.41
lradius 43.2689
lwrist 5.95321
lhand -13.6907 27.4578
lfingers 7.12502
lthumb 12.4274 57.0684
rfemur -32.9684 -1.51401 18.2402
rtibia 49.9704
rfoot -13.0208 -5.33617
rtoes 5.82681
lfemur -4.68413 4.08385 -25.4166
ltibia 23.3735
lfoot -13.9521 -13.9604
ltoes 16.6929
